 http://www.imdb.com/title/tt0022100/

Source: M.1931.720p.BluRay.x264-SiNNERS Thanks!

Subs: Brazilian, English, Greek, Hungarian, Italian, Portuguese and Spanish.

Sample and Screens included.

General
Complete name                            : M-720p MP4 AAC x264 BRRip 1931-CC.mp4
Format                                   : MPEG-4
Format profile                           : Base Media
Codec ID                                 : isom
File size                                : 2.21 GiB
Duration                                 : 1h 50mn
Overall bit rate mode                    : Variable
Overall bit rate                         : 2 856 Kbps
Encoded date                             : UTC 2012-10-04 10:08:26

Video
ID                                       : 1
Format                                   : AVC
Format/Info                              : Advanced Video Codec
Format profile                           : High@L3.1
Format settings, CABAC                   : Yes
Format settings, ReFrames                : 5 frames
Codec ID                                 : avc1
Codec ID/Info                            : Advanced Video Coding
Duration                                 : 1h 50mn
Bit rate                                 : 2 746 Kbps
Maximum bit rate                         : 17.3 Mbps
Width                                    : 864 pixels
Height                                   : 720 pixels
Display aspect ratio                     : 1.200
Frame rate mode                          : Variable
Frame rate                               : 23.976 fps
Minimum frame rate                       : 19.048 fps
Maximum frame rate                       : 24.390 fps
Color space                              : YUV
Chroma subsampling                       : 4:2:0
Bit depth                                : 8 bits
Scan type                                : Progressive
Bits/(Pixel*Frame)                       : 0.184
Stream size                              : 2.12 GiB (96%)
Writing library                          : x264 core 112

Audio
ID                                       : 2
Format                                   : AAC
Format/Info                              : Advanced Audio Codec
Format profile                           : LC
Codec ID                                 : 40
Duration                                 : 1h 50mn
Bit rate mode                            : Variable
Bit rate                                 : 110 Kbps
Maximum bit rate                         : 166 Kbps
Channel(s)                               : 2 channels
Channel positions                        : Front: L R
Sampling rate                            : 48.0 KHz
Compression mode                         : Lossy
Delay relative to video                  : 83ms
Stream size                              : 87.1 MiB (4%)
Language                                 : German

Enjoy...

Requested by varuneric.

@varuneric: A decent source for Reds 1981 is hard to find, so i must pass for that one.Sorry m8